<?xml version="1.0" encoding="UTF-8"?>
<svg xmlns="http://www.w3.org/2000/svg" xmlns:xlink="http://www.w3.org/1999/xlink" viewBox="0 0 1110 216">
  <defs>
    <style>
      .cls-1 {
        fill: url(#linear-gradient-2);
      }

      .cls-2, .cls-3, .cls-4 {
        fill: #fff;
      }

      .cls-3 {
        opacity: .34;
      }

      .cls-5 {
        fill: url(#linear-gradient-6);
      }

      .cls-6 {
        isolation: isolate;
      }

      .cls-7 {
        opacity: .64;
      }

      .cls-8 {
        filter: url(#drop-shadow-1);
      }

      .cls-9 {
        mix-blend-mode: screen;
        opacity: .49;
      }

      .cls-10 {
        fill: url(#linear-gradient-5);
      }

      .cls-4 {
        opacity: .13;
      }

      .cls-11 {
        opacity: .73;
      }

      .cls-12 {
        fill: url(#linear-gradient-3);
      }

      .cls-13 {
        fill: url(#linear-gradient);
      }

      .cls-14 {
        fill: url(#linear-gradient-4);
      }
    </style>
    <filter id="drop-shadow-1" filterUnits="userSpaceOnUse">
      <feOffset dx="4" dy="4"/>
      <feGaussianBlur result="blur" stdDeviation="4"/>
      <feFlood flood-color="#010101" flood-opacity=".15"/>
      <feComposite in2="blur" operator="in"/>
      <feComposite in="SourceGraphic"/>
    </filter>
    <linearGradient id="linear-gradient" x1="555.06" y1="231.94" x2="555.06" y2="-332.22" gradientUnits="userSpaceOnUse">
      <stop offset=".02" stop-color="#f47f73"/>
      <stop offset=".47" stop-color="#a375b3"/>
      <stop offset="1" stop-color="#fff"/>
    </linearGradient>
    <linearGradient id="linear-gradient-2" x1="565.8" y1="281.37" x2="436.07" y2="-77.64" gradientUnits="userSpaceOnUse">
      <stop offset="0" stop-color="#a375b3"/>
      <stop offset=".3" stop-color="#c4a7cf"/>
      <stop offset=".57" stop-color="#dfd0e6"/>
      <stop offset=".85" stop-color="#f5f1f7"/>
      <stop offset="1" stop-color="#fff"/>
    </linearGradient>
    <linearGradient id="linear-gradient-3" x1="256.02" y1="-36.51" x2="189.27" y2="-221.23" xlink:href="#linear-gradient-2"/>
    <linearGradient id="linear-gradient-4" x1="566.29" y1="-21.94" x2="778.33" y2="287.96" gradientUnits="userSpaceOnUse">
      <stop offset="0" stop-color="#fff"/>
      <stop offset=".19" stop-color="#fdf8fa"/>
      <stop offset=".47" stop-color="#fae4ef"/>
      <stop offset=".8" stop-color="#f6c5dc"/>
      <stop offset=".99" stop-color="#f3b1d0"/>
    </linearGradient>
    <linearGradient id="linear-gradient-5" x1="819.61" y1="-26.14" x2="937.24" y2="145.79" xlink:href="#linear-gradient-4"/>
    <linearGradient id="linear-gradient-6" x1="299.7" y1="436.58" x2="417.34" y2="608.5" xlink:href="#linear-gradient-4"/>
  </defs>
  <g class="cls-6">
    <g id="Layer_1" data-name="Layer 1">
      <g class="cls-8">
        <polygon class="cls-13" points="1110.03 401.38 1109.93 401.38 1109.93 591.3 .09 591.3 .09 -39.97 1109.93 -39.97 1109.93 400.65 1109.99 401.14 1110.03 401.38"/>
        <g class="cls-7">
          <g class="cls-9">
            <path class="cls-1" d="M1110.03,401.38h-.1v16.59c-23.02,.61-46.03,.14-69-.98-14.1-.68-28.2-1.59-42.28-2.65-7.84-.59-15.66-1.22-23.48-1.87-11.25-.93-22.48-1.93-33.73-2.92-1.41-.12-2.8-.25-4.21-.37-3.94-.34-7.89-.7-11.83-1.03-13.34-1.15-26.67-2.27-40.01-3.27-21.14-1.59-42.3-2.87-63.47-3.5-3.21-.1-6.41-.17-9.62-.24-.27,0-.53-.02-.8-.02-2.63-.05-5.26-.1-7.89-.14-.76-.02-1.53-.03-2.29-.03-8.81-.15-17.61-.25-26.42-.31h-.03s-.05-.02-.07,0c-.03-.02-.07-.02-.08,0-.12-.02-.22-.02-.32,0-2.36-.03-4.7-.05-7.04-.07-6.16-.03-12.3-.07-18.46-.07-3.99-.02-7.96,0-11.94,.02-7.79,0-15.58,.03-23.36,.1h-.54c-1.8,.02-3.56,.03-5.36,.07-.87-.02-1.71,0-2.58,.02-.85,0-1.7,0-2.54,.03h-.03c-2.92,.02-5.82,.05-8.74,.08-6.6,.08-13.2,.19-19.8,.31-.93,0-1.88,.02-2.82,.05-19.53,.34-39.04,.81-58.57,1.41h-.14c-5.23,.14-10.45,.31-15.69,.48h-.05c-6.21,.19-12.44,.41-18.65,.63-3.85,.14-7.67,.27-11.52,.42h-.02c-33.15,1.2-66.29,2.66-99.42,4.26h-.46c-7.77,.37-15.56,.76-23.35,1.17-33.14,1.63-66.29,3.38-99.42,5.09h-.02c-1.73,.1-3.44,.19-5.17,.27-4.72,.25-9.45,.51-14.17,.75-19.55,.95-39.09,1.95-58.62,2.9-5.36,.25-10.72,.51-16.08,.75-12.52,.56-25.04,1.09-37.56,1.51-1.99,.07-3.99,.14-5.97,.2-22.51,.71-45.05,1.14-67.58,1-2.12,0-4.26-.02-6.38-.05-19.17-.17-38.34-.76-57.53-1.9-11.79-.71-23.53-1.05-35.22-1.51h-.02c-4.5-.19-8.99-.37-13.49-.61-8.7-.46-17.36-1.07-25.99-2.04v-112.83c3.66-1.87,7.38-3.63,11.15-5.33,7.52-3.38,15.18-6.43,22.97-9.21h.02c23.02-8.19,47.1-13.93,71.41-18.43,9.48-1.76,19-3.33,28.5-4.77,3.68-.58,7.36-1.12,11.05-1.65,14.42-2.09,28.78-3.95,42.86-5.87,1.04-.14,2.05-.27,3.09-.41,58.06-7.77,116.56-11.81,175.08-13.79,5.31-.19,10.62-.29,15.97-.34,24.6-.29,49.47,.48,74.23,.1,19.63-.31,39.18-1.32,58.4-4.17,7.87-1.17,16.24-3,21.67-8.82,8.48-9.13,2.41-19.8-6.74-24.87-35.97-19.95-80.56-13.84-120.02-25.38-3.34-.98-6.87-2.27-9.64-4.33-1.71-1.27-3.12-2.82-4.02-4.77-2.19-4.7,1.32-8.69,7.99-12.05,19.8-10.01,67.46-14.44,75.98-15.34,30.66-3.24,61.47-4.14,92.26-5.51h.02c4.46-.19,8.94-.41,13.4-.63,43.6-2.22,87.28-2.9,130.93-2.19,16.83,.25,33.66,.73,50.49,1.39,14.88,.58,60.47,6.16,61.5-17.22,.37-8.4-35.54-33.97-9.93-33.7,97.06,1.02,194.16,2.99,291.23,1.26V400.65l.07,.49,.03,.24Z"/>
          </g>
          <g class="cls-9">
            <path class="cls-12" d="M570.91-39.82c.17,12.13-6.25,30.03-12.05,40.77-7.79,14.39-19.21,24.91-34.42,31.27-17.87,7.45-37.61,8.84-56.94,10.15-39.5,2.66-79.47,1.29-119.04,1.49-3.43,.02-6.96,.05-10.08,1.49-11.74,5.4-8.21,17.46-3.75,29.62,6.12,16.73,14.03,33.68-13.51,33.88-18.27,.14-36.55-.07-54.8-.53-34.68-.87-69.36-2.58-104.02-4.29-8.87-.44-21.75,3.92-18.65,12.25,2,5.34,10.57,8.7,8.31,13.95-50.64-.2-101.24-.31-151.88-.31V-39.17c13.1-.32,26.2-.58,39.29-.8,82.56-1.43,165.15-1.31,247.73-.73,29.01,.2,58.01,.46,87.02,.73,20.36,.19,40.74,.37,61.1,.56,14.23,.14,28.78-.22,43.4-.56,20.92-.51,42.03-.98,62.72,0,9.5,.44,29.56,.15,29.56,.15Z"/>
          </g>
        </g>
        <g class="cls-11">
          <path class="cls-14" d="M699.51,66.19h-1.55c-7.84,0-14.01-2.92-14.26-6.52,0-.05,0-.1-.01-.15-.46-4.08-8.19-7.19-17.06-7.19h-112.02c-9.03,0-16.91,3.21-17.18,7.36-.28,4.3,7.21,7.83,16.49,7.83h2.24c7.84,0,14.01,2.92,14.26,6.52,0,.05,0,.1,.01,.15,.46,4.08,8.19,7.19,17.06,7.19h112.71c9.28,0,16.77-3.53,16.49-7.83-.27-4.16-8.15-7.36-17.18-7.36Z"/>
          <path class="cls-10" d="M902.2,45.09h-.72c-3.61,0-6.45-2.92-6.57-6.52,0-.05,0-.1,0-.15-.21-4.08-3.77-7.19-7.86-7.19h-51.59c-4.16,0-7.79,3.21-7.91,7.36-.13,4.3,3.32,7.83,7.59,7.83h1.03c3.61,0,6.45,2.92,6.57,6.52,0,.05,0,.1,0,.15,.21,4.08,3.77,7.19,7.86,7.19h51.91c4.27,0,7.72-3.53,7.59-7.83-.12-4.16-3.75-7.36-7.91-7.36Z"/>
          <path class="cls-5" d="M149.47,167.53h-.72c-3.61,0-6.45-2.92-6.57-6.52,0-.05,0-.1,0-.15-.21-4.08-3.77-7.19-7.86-7.19h-51.59c-4.16,0-7.79,3.21-7.91,7.36-.13,4.3,3.32,7.83,7.59,7.83h1.03c3.61,0,6.45,2.92,6.57,6.52,0,.05,0,.1,0,.15,.21,4.08,3.77,7.19,7.86,7.19h51.91c4.27,0,7.72-3.53,7.59-7.83-.12-4.16-3.75-7.36-7.91-7.36Z"/>
        </g>
        <g>
          <circle class="cls-4" cx="261.1" cy="107.05" r="102.45" transform="translate(.78 215.98) rotate(-45)"/>
          <circle class="cls-3" cx="261.1" cy="107.05" r="81.49" transform="translate(131.36 357.65) rotate(-84.92)"/>
          <circle class="cls-2" cx="261.1" cy="107.05" r="62.74" transform="translate(-20.94 97.92) rotate(-20.44)"/>
        </g>
      </g>
    </g>
  </g>
</svg>