<svg width="52" height="52" viewBox="0 0 52 52" fill="none" xmlns="http://www.w3.org/2000/svg">
<rect width="52" height="52" rx="26" fill="#49426E"/>
<path d="M27.504 18.9477C29.4645 18.9477 31.0538 17.3584 31.0538 15.3979C31.0538 13.4374 29.4645 11.8481 27.504 11.8481C25.5435 11.8481 23.9542 13.4374 23.9542 15.3979C23.9542 17.3584 25.5435 18.9477 27.504 18.9477Z" fill="#F2EFE0"/>
<path d="M32.7635 37.3616C32.1248 38.2969 30.326 40.1519 26.1029 40.1519C22.6464 40.1519 21.2518 37.6839 21.6692 35.1783L23.4579 24.4488C23.5954 23.6223 22.9579 22.8706 22.1207 22.8706H21.4557C20.8751 22.8706 20.405 22.4006 20.405 21.8199C20.405 21.5293 20.5228 21.2668 20.713 21.0766C20.9032 20.8864 21.1657 20.7686 21.4563 20.7686H28.5601C29.9511 20.7686 30.997 22.0358 30.7344 23.4017L28.3574 35.7422C28.2061 36.5268 28.8077 37.2557 29.6072 37.2557C30.1448 37.2557 30.5921 37.1487 30.9551 36.9992C31.3181 36.8497 31.5962 36.6583 31.7947 36.4891C32.0405 36.2798 32.4005 36.2768 32.6469 36.4843C32.9046 36.7038 32.9543 37.0823 32.7635 37.3616Z" fill="#F2EFE0"/>
</svg>
