<?xml version="1.0" encoding="UTF-8"?>
<svg id="OBJECT" xmlns="http://www.w3.org/2000/svg" viewBox="0 0 94.34 95.73">
  <defs>
    <style>
      .cls-1 {
        fill: #f1c28e;
      }
    </style>
  </defs>
  <path class="cls-1" d="M47.17,90.41c-23.31,0-42.28-18.97-42.28-42.28S23.86,5.85,47.17,5.85s42.28,18.97,42.28,42.28-18.97,42.28-42.28,42.28Zm0-82.97C24.73,7.44,6.48,25.69,6.48,48.13s18.25,40.69,40.69,40.69,40.69-18.25,40.69-40.69S69.6,7.44,47.17,7.44Z"/>
  <path class="cls-1" d="M47.17,87.38c-21.64,0-39.25-17.61-39.25-39.25S25.53,8.88,47.17,8.88s39.25,17.61,39.25,39.25-17.61,39.25-39.25,39.25Zm0-77.44C26.11,9.94,8.98,27.07,8.98,48.13s17.13,38.19,38.19,38.19,38.19-17.13,38.19-38.19S68.23,9.94,47.17,9.94Z"/>
  <path class="cls-1" d="M47.17,86.32c-21.18,0-38.42-17.23-38.42-38.42S25.99,9.48,47.17,9.48s38.42,17.23,38.42,38.42-17.23,38.42-38.42,38.42Zm0-75.18C26.9,11.14,10.41,27.63,10.41,47.9s16.49,36.76,36.76,36.76,36.76-16.49,36.76-36.76S67.44,11.14,47.17,11.14Z"/>
  <g>
    <path class="cls-1" d="M47.17,9.72c-1.67,0-3.01-1.31-3.06-2.98v-.51s.5-.03,.5-.03c.95-.06,1.79-.08,2.56-.08s1.61,.03,2.56,.08l.51,.03v.51c-.06,1.67-1.4,2.98-3.07,2.98Zm-1.92-2.5c.24,.84,1.01,1.44,1.92,1.44s1.68-.6,1.92-1.44c-1.39-.07-2.44-.07-3.83,0Z"/>
    <path class="cls-1" d="M47.17,90.14c-.77,0-1.61-.03-2.56-.08l-.51-.03v-.51c.06-1.67,1.4-2.98,3.07-2.98s3.01,1.31,3.06,2.98v.51s-.5,.03-.5,.03c-.95,.06-1.79,.08-2.56,.08Zm-1.92-1.11c1.39,.07,2.44,.07,3.83,0-.24-.84-1.01-1.44-1.92-1.44s-1.68,.6-1.92,1.44Z"/>
    <path class="cls-1" d="M39.96,10.35c-1.43,0-2.69-1-2.99-2.46l-.1-.5,.5-.12c1.66-.4,3.36-.7,5.04-.89l.51-.06,.08,.51c.25,1.65-.85,3.18-2.49,3.47-.18,.03-.36,.05-.54,.05Zm-1.78-2.18c.38,.78,1.24,1.24,2.14,1.08h0c.9-.16,1.55-.88,1.64-1.75-1.26,.16-2.53,.38-3.78,.66Z"/>
    <path class="cls-1" d="M51.42,89.92l-.08-.51c-.25-1.65,.85-3.18,2.49-3.47,1.65-.29,3.2,.77,3.53,2.41l.1,.5-.5,.12c-1.66,.4-3.36,.7-5.04,.89l-.51,.06Zm2.96-2.96c-.12,0-.24,.01-.35,.03h0c-.9,.16-1.55,.88-1.64,1.75,1.26-.16,2.53-.38,3.78-.66-.33-.68-1.02-1.12-1.79-1.12Z"/>
    <path class="cls-1" d="M32.97,12.23c-1.22,0-2.36-.74-2.84-1.95l-.19-.48,.47-.2c1.55-.67,3.17-1.26,4.81-1.75l.49-.15,.16,.48c.53,1.59-.28,3.28-1.85,3.85h0c-.35,.13-.71,.19-1.06,.19Zm-1.6-1.89c.51,.71,1.44,1.01,2.3,.7h0c.86-.31,1.37-1.14,1.31-2.01-1.23,.38-2.44,.82-3.61,1.31Z"/>
    <path class="cls-1" d="M58.62,88.55l-.16-.48c-.53-1.59,.28-3.28,1.85-3.85h0c1.57-.57,3.28,.2,3.9,1.76l.19,.48-.47,.2c-1.55,.68-3.17,1.26-4.81,1.75l-.49,.14Zm2.74-3.46c-.23,0-.46,.04-.69,.12h0c-.86,.31-1.37,1.14-1.31,2.01,1.23-.38,2.44-.82,3.61-1.31-.38-.52-.98-.82-1.61-.82Z"/>
    <path class="cls-1" d="M26.43,15.28c-1.03,0-2.02-.52-2.6-1.47l-.27-.44,.43-.28c1.41-.93,2.9-1.79,4.43-2.56l.46-.23,.24,.45c.8,1.47,.29,3.28-1.15,4.11h0c-.49,.28-1.01,.41-1.53,.41Zm-1.38-1.62c.63,.61,1.59,.75,2.38,.29,.79-.46,1.15-1.36,.94-2.21-1.14,.59-2.26,1.23-3.32,1.92Z"/>
    <path class="cls-1" d="M65.46,85.95l-.24-.45c-.8-1.47-.29-3.28,1.15-4.11h0c1.45-.83,3.26-.37,4.14,1.06l.27,.44-.43,.28c-1.41,.93-2.9,1.79-4.43,2.56l-.46,.23Zm1.44-3.65c-.79,.46-1.15,1.36-.94,2.21,1.14-.59,2.26-1.23,3.32-1.92-.63-.61-1.59-.74-2.38-.29h0Z"/>
    <path class="cls-1" d="M20.52,19.43c-.84,0-1.68-.35-2.29-1.03l-.34-.38,.37-.35c1.27-1.2,2.58-2.31,3.91-3.3l.41-.3,.32,.4c1.04,1.31,.86,3.18-.42,4.25h0c-.58,.48-1.27,.72-1.96,.72Zm-1.1-1.4c.72,.48,1.69,.45,2.39-.13,.7-.59,.9-1.54,.54-2.34-.99,.76-1.97,1.59-2.93,2.47Z"/>
    <path class="cls-1" d="M71.75,82.2l-.32-.4c-1.04-1.31-.86-3.18,.42-4.25h0c1.27-1.07,3.14-.93,4.25,.31l.34,.38-.37,.35c-1.27,1.2-2.58,2.31-3.91,3.3l-.41,.3Zm.78-3.84c-.7,.59-.9,1.54-.54,2.34,.99-.76,1.97-1.59,2.93-2.47-.72-.48-1.69-.45-2.39,.13h0Z"/>
    <path class="cls-1" d="M15.41,24.54c-.67,0-1.34-.22-1.91-.68l-.4-.32,.3-.41c.99-1.33,2.09-2.65,3.3-3.91l.35-.37,.38,.34c1.25,1.11,1.38,2.98,.31,4.25h0c-.61,.72-1.47,1.1-2.34,1.1Zm-.81-1.24c.8,.36,1.75,.16,2.34-.54h0c.58-.7,.62-1.66,.13-2.39-.88,.96-1.71,1.94-2.47,2.93Z"/>
    <path class="cls-1" d="M77.29,77.41l-.38-.34c-1.25-1.11-1.38-2.98-.31-4.25h0c1.07-1.28,2.94-1.47,4.25-.42l.4,.32-.3,.41c-.99,1.33-2.1,2.65-3.3,3.91l-.35,.37Zm1.64-4.63c-.57,0-1.13,.24-1.53,.72h0c-.58,.7-.62,1.66-.13,2.39,.88-.96,1.71-1.94,2.47-2.93-.26-.12-.54-.17-.81-.17Z"/>
    <path class="cls-1" d="M11.27,30.46c-.5,0-1-.12-1.47-.38l-.45-.24,.23-.46c.77-1.53,1.63-3.03,2.56-4.43l.28-.43,.44,.27c1.43,.87,1.89,2.69,1.06,4.14h0c-.57,.98-1.58,1.53-2.64,1.53Zm-.49-1.12c.85,.21,1.75-.15,2.21-.94h0c.46-.79,.32-1.75-.29-2.38-.69,1.07-1.33,2.18-1.92,3.32Z"/>
    <path class="cls-1" d="M81.92,71.74l-.44-.27c-1.43-.87-1.89-2.69-1.06-4.14h0c.84-1.45,2.64-1.96,4.11-1.15l.45,.24-.23,.46c-.77,1.54-1.63,3.03-2.56,4.43l-.28,.43Zm-.57-3.88c-.46,.79-.32,1.75,.29,2.38,.69-1.07,1.33-2.18,1.92-3.32-.85-.21-1.75,.15-2.21,.94h0Z"/>
    <path class="cls-1" d="M8.22,37.01c-.33,0-.66-.05-.99-.16l-.48-.16,.14-.49c.49-1.64,1.07-3.26,1.75-4.81l.2-.47,.48,.19c1.56,.61,2.34,2.32,1.76,3.9-.45,1.25-1.61,2.01-2.86,2.01Zm-.15-1.07c.87,.07,1.7-.45,2.01-1.31h0c.31-.86,0-1.79-.7-2.3-.49,1.17-.93,2.38-1.31,3.61Z"/>
    <path class="cls-1" d="M85.5,65.34l-.48-.19c-1.56-.61-2.34-2.32-1.76-3.9h0c.57-1.57,2.27-2.38,3.85-1.85l.48,.16-.14,.49c-.49,1.64-1.07,3.26-1.75,4.81l-.2,.47Zm-1.24-3.72c-.31,.86,0,1.79,.7,2.3,.49-1.17,.93-2.38,1.31-3.61-.87-.07-1.7,.45-2.01,1.31h0Z"/>
    <path class="cls-1" d="M6.34,43.98c-.15,0-.31-.01-.46-.03l-.51-.08,.06-.51c.19-1.68,.49-3.38,.89-5.04l.12-.5,.5,.1c1.64,.33,2.7,1.88,2.41,3.53-.26,1.49-1.54,2.53-3,2.53Zm.87-4.85c-.28,1.25-.5,2.52-.66,3.78,.87-.09,1.59-.74,1.75-1.64h0c.16-.9-.3-1.76-1.08-2.14Z"/>
    <path class="cls-1" d="M87.9,58.43l-.5-.1c-1.64-.33-2.7-1.88-2.41-3.53h0c.29-1.64,1.81-2.74,3.47-2.49l.51,.08-.06,.51c-.19,1.68-.49,3.38-.89,5.04l-.12,.5Zm-1.87-3.45c-.16,.9,.3,1.76,1.09,2.14,.28-1.25,.5-2.52,.66-3.78-.87,.09-1.59,.74-1.75,1.64h0Z"/>
    <path class="cls-1" d="M5.27,51.2l-.03-.51c-.06-.95-.09-1.79-.09-2.56s.03-1.61,.09-2.56l.03-.51h.51c1.67,.06,2.98,1.4,2.98,3.07s-1.31,3.01-2.98,3.06h-.51Zm1-4.97c-.03,.7-.05,1.33-.05,1.92s.02,1.22,.05,1.92c.84-.24,1.44-1.01,1.44-1.92s-.6-1.68-1.44-1.92Z"/>
    <path class="cls-1" d="M89.07,51.2h-.51c-1.67-.06-2.98-1.4-2.98-3.07s1.31-3.01,2.98-3.06h.51s.03,.5,.03,.5c.06,.95,.08,1.79,.08,2.56s-.03,1.61-.08,2.56l-.03,.51Zm-1-4.99c-.84,.24-1.44,1.01-1.44,1.92s.6,1.68,1.44,1.92c.03-.7,.05-1.33,.05-1.92s-.02-1.22-.05-1.92Z"/>
    <path class="cls-1" d="M6.44,58.43l-.12-.5c-.4-1.66-.7-3.36-.89-5.04l-.06-.51,.51-.08c1.66-.24,3.18,.85,3.47,2.49h0c.29,1.65-.77,3.2-2.41,3.53l-.5,.1Zm.12-5.09c.16,1.26,.38,2.53,.66,3.78,.78-.38,1.24-1.24,1.08-2.14h0c-.16-.9-.88-1.55-1.75-1.64Z"/>
    <path class="cls-1" d="M87.99,43.98c-1.47,0-2.74-1.04-3-2.53h0c-.29-1.65,.77-3.2,2.41-3.53l.5-.1,.12,.5c.4,1.67,.7,3.36,.89,5.04l.06,.51-.51,.08c-.16,.02-.31,.03-.46,.03Zm-1.96-2.71c.16,.9,.88,1.55,1.75,1.64-.16-1.26-.38-2.53-.66-3.78-.78,.38-1.24,1.24-1.09,2.14h0Z"/>
    <path class="cls-1" d="M8.84,65.34l-.2-.47c-.68-1.55-1.26-3.17-1.75-4.81l-.14-.49,.48-.16c1.59-.53,3.28,.28,3.85,1.85h0c.57,1.57-.2,3.28-1.76,3.9l-.48,.19Zm-.77-5.03c.38,1.23,.82,2.44,1.31,3.61,.71-.51,1.01-1.44,.7-2.3h0c-.31-.86-1.14-1.38-2.01-1.31Z"/>
    <path class="cls-1" d="M86.12,37.01c-1.25,0-2.41-.77-2.86-2.01h0c-.57-1.57,.2-3.28,1.76-3.9l.48-.19,.2,.47c.67,1.55,1.26,3.17,1.75,4.81l.14,.49-.48,.16c-.33,.11-.66,.16-.99,.16Zm-1.87-2.38c.31,.86,1.15,1.37,2.01,1.31-.38-1.23-.82-2.44-1.31-3.61-.71,.51-1.01,1.44-.7,2.3h0Z"/>
    <path class="cls-1" d="M12.42,71.74l-.28-.43c-.93-1.41-1.79-2.9-2.56-4.43l-.23-.46,.45-.24c1.47-.8,3.28-.29,4.11,1.15h0c.84,1.45,.37,3.27-1.06,4.14l-.44,.27Zm-1.63-4.82c.59,1.14,1.23,2.26,1.92,3.32,.61-.63,.75-1.59,.29-2.38h0c-.46-.79-1.36-1.15-2.21-.94Z"/>
    <path class="cls-1" d="M83.07,30.46c-1.05,0-2.07-.55-2.64-1.53h0c-.84-1.45-.37-3.26,1.06-4.14l.44-.27,.28,.43c.93,1.41,1.79,2.9,2.56,4.43l.23,.46-.45,.24c-.47,.26-.98,.38-1.47,.38Zm-1.72-2.06c.46,.79,1.36,1.15,2.21,.94-.59-1.14-1.23-2.26-1.92-3.32-.61,.63-.75,1.59-.29,2.38h0Z"/>
    <path class="cls-1" d="M17.05,77.41l-.35-.37c-1.2-1.27-2.31-2.58-3.3-3.91l-.3-.41,.4-.32c1.31-1.04,3.18-.86,4.25,.42h0c1.07,1.27,.93,3.14-.31,4.25l-.38,.34Zm-2.45-4.46c.76,.99,1.59,1.97,2.47,2.93,.48-.72,.45-1.69-.13-2.39-.59-.7-1.54-.9-2.34-.54Z"/>
    <path class="cls-1" d="M78.93,24.54c-.87,0-1.73-.37-2.34-1.1h0c-1.07-1.27-.93-3.14,.31-4.25l.38-.34,.35,.37c1.2,1.27,2.31,2.58,3.3,3.91l.3,.41-.4,.32c-.57,.45-1.24,.68-1.91,.68Zm-1.66-4.17c-.48,.72-.45,1.69,.13,2.39h0c.59,.7,1.54,.9,2.34,.54-.76-.99-1.59-1.97-2.47-2.93Z"/>
    <path class="cls-1" d="M22.59,82.2l-.41-.3c-1.33-.99-2.65-2.1-3.91-3.3l-.37-.35,.34-.38c1.11-1.25,2.98-1.38,4.25-.31h0c1.28,1.07,1.47,2.94,.42,4.25l-.32,.4Zm-3.17-3.98c.96,.88,1.94,1.71,2.93,2.47,.36-.8,.16-1.75-.54-2.34h0c-.7-.58-1.66-.62-2.39-.13Z"/>
    <path class="cls-1" d="M73.82,19.43c-.69,0-1.39-.24-1.96-.72h0c-1.28-1.07-1.47-2.94-.42-4.25l.32-.4,.41,.3c1.33,.99,2.65,2.09,3.91,3.3l.37,.35-.34,.38c-.61,.68-1.45,1.03-2.29,1.03Zm-1.28-1.53c.7,.58,1.66,.62,2.39,.13-.96-.88-1.94-1.71-2.93-2.47-.36,.8-.16,1.75,.54,2.34h0Z"/>
    <path class="cls-1" d="M28.88,85.95l-.46-.23c-1.54-.77-3.03-1.63-4.43-2.56l-.43-.28,.27-.44c.87-1.43,2.69-1.89,4.14-1.06,1.45,.84,1.95,2.64,1.15,4.11l-.24,.45Zm-3.82-3.36c1.07,.69,2.18,1.33,3.32,1.92,.21-.85-.15-1.75-.94-2.21h0c-.79-.46-1.75-.32-2.38,.29Z"/>
    <path class="cls-1" d="M67.91,15.28c-.52,0-1.05-.13-1.53-.41h0c-1.45-.84-1.95-2.64-1.15-4.11l.24-.45,.46,.23c1.53,.77,3.03,1.63,4.43,2.56l.43,.28-.27,.44c-.58,.95-1.58,1.47-2.6,1.47Zm-1-1.33c.79,.46,1.75,.32,2.38-.29-1.07-.69-2.18-1.33-3.32-1.92-.21,.85,.15,1.75,.94,2.21h0Z"/>
    <path class="cls-1" d="M35.72,88.55l-.49-.14c-1.64-.49-3.26-1.07-4.81-1.75l-.47-.2,.19-.48c.61-1.56,2.32-2.34,3.9-1.76,1.57,.57,2.38,2.26,1.85,3.85l-.16,.48Zm-4.35-2.64c1.17,.49,2.38,.93,3.61,1.31,.06-.87-.45-1.7-1.31-2.01h0c-.86-.31-1.79,0-2.3,.7Z"/>
    <path class="cls-1" d="M61.36,12.23c-.35,0-.71-.06-1.06-.19-1.57-.57-2.38-2.26-1.85-3.85l.16-.48,.49,.15c1.64,.49,3.26,1.07,4.81,1.75l.47,.2-.19,.48c-.48,1.21-1.62,1.95-2.84,1.95Zm-2.01-3.2c-.06,.87,.45,1.7,1.31,2.01h0c.86,.31,1.79,0,2.3-.7-1.17-.49-2.38-.93-3.61-1.31Z"/>
    <path class="cls-1" d="M42.92,89.92l-.51-.06c-1.68-.19-3.38-.49-5.04-.89l-.5-.12,.1-.5c.33-1.64,1.88-2.7,3.53-2.41h0c1.64,.29,2.74,1.81,2.49,3.47l-.08,.51Zm-4.74-1.84c1.25,.28,2.52,.5,3.78,.66-.09-.87-.74-1.59-1.64-1.75h0c-.9-.16-1.76,.3-2.14,1.08Z"/>
    <path class="cls-1" d="M54.38,10.35c-.18,0-.36-.02-.54-.05h0c-1.64-.29-2.74-1.81-2.49-3.47l.08-.51,.51,.06c1.68,.19,3.38,.49,5.04,.89l.5,.12-.1,.5c-.3,1.46-1.55,2.46-2.99,2.46Zm-2-2.84c.09,.87,.74,1.59,1.64,1.75h0c.9,.16,1.76-.3,2.14-1.08-1.25-.28-2.52-.5-3.78-.66Z"/>
  </g>
  <g>
    <rect class="cls-1" x="46.62" y="10.33" width="1.1" height="75.13"/>
    <rect class="cls-1" x="46.62" y="10.33" width="1.1" height="75.13" transform="translate(-13.54 19.02) rotate(-20)"/>
    <rect class="cls-1" x="46.62" y="10.33" width="1.1" height="75.13" transform="translate(-19.75 41.53) rotate(-40)"/>
    <rect class="cls-1" x="46.62" y="10.33" width="1.1" height="75.13" transform="translate(-17.9 64.8) rotate(-60)"/>
    <rect class="cls-1" x="46.62" y="10.33" width="1.1" height="75.13" transform="translate(-8.19 86.03) rotate(-80)"/>
    <rect class="cls-1" x="9.6" y="47.35" width="75.13" height="1.1" transform="translate(-7.6 8.92) rotate(-10.01)"/>
    <rect class="cls-1" x="9.6" y="47.35" width="75.13" height="1.1" transform="translate(-17.63 30) rotate(-30)"/>
    <rect class="cls-1" x="9.6" y="47.35" width="75.13" height="1.1" transform="translate(-19.84 53.26) rotate(-50.01)"/>
    <rect class="cls-1" x="9.6" y="47.35" width="75.13" height="1.1" transform="translate(-13.96 75.87) rotate(-70.02)"/>
  </g>
  <g>
    <path class="cls-1" d="M47.17,.52c-2.54,0-4.61,2.07-4.61,4.61,0,.69,.15,1.36,.45,1.98l.3,.62h7.72l.3-.62c.3-.63,.45-1.3,.45-1.98,0-2.54-2.07-4.61-4.61-4.61Z"/>
    <path class="cls-1" d="M51.03,88.52h-7.72l-.3,.62c-.3,.63-.45,1.3-.45,1.98,0,2.54,2.07,4.61,4.61,4.61s4.61-2.07,4.61-4.61c0-.69-.15-1.36-.45-1.98l-.3-.62Z"/>
    <path class="cls-1" d="M30.89,3.39c-2.39,.87-3.62,3.52-2.75,5.9,.24,.65,.61,1.22,1.1,1.71l.49,.48,7.25-2.64,.07-.68c.07-.69-.02-1.37-.25-2.02-.87-2.39-3.52-3.62-5.9-2.75Z"/>
    <path class="cls-1" d="M65.1,85.25l-.49-.48-7.25,2.64-.07,.68c-.07,.69,.02,1.37,.25,2.02,.42,1.16,1.27,2.08,2.38,2.6,.62,.29,1.28,.43,1.94,.43,.53,0,1.06-.09,1.58-.28,2.39-.87,3.62-3.52,2.75-5.9-.24-.65-.61-1.22-1.1-1.71Z"/>
    <path class="cls-1" d="M23.06,12.23c-.79-.94-1.9-1.52-3.13-1.63-1.23-.12-2.42,.27-3.36,1.06-.94,.79-1.52,1.9-1.63,3.13-.11,1.23,.27,2.42,1.06,3.36,.44,.53,.99,.94,1.62,1.23l.63,.28,5.91-4.96-.17-.67c-.17-.67-.49-1.28-.93-1.81Z"/>
    <path class="cls-1" d="M76.72,76.87l-.63-.29-5.91,4.96,.17,.67c.17,.68,.49,1.28,.93,1.81,.91,1.08,2.22,1.64,3.53,1.64,1.05,0,2.1-.35,2.96-1.08,1.95-1.63,2.2-4.55,.57-6.49-.44-.53-.99-.94-1.62-1.23Z"/>
    <path class="cls-1" d="M12.24,22.64c-2.2-1.27-5.02-.51-6.29,1.69-.62,1.07-.78,2.31-.46,3.5,.32,1.19,1.08,2.18,2.15,2.8,.6,.34,1.25,.55,1.94,.6l.69,.05,3.86-6.68-.39-.57c-.39-.57-.89-1.04-1.49-1.38Z"/>
    <path class="cls-1" d="M86.71,65.63c-.6-.34-1.25-.54-1.94-.6l-.69-.05-3.86,6.68,.39,.57c.39,.57,.9,1.04,1.49,1.38,.71,.41,1.5,.62,2.3,.62,.4,0,.8-.05,1.2-.16,1.19-.32,2.18-1.08,2.8-2.15,1.27-2.2,.51-5.02-1.69-6.29Z"/>
    <path class="cls-1" d="M4.03,45.2c.26,.05,.53,.07,.79,.07,.42,0,.83-.06,1.24-.17l.66-.18,1.34-7.6-.56-.4c-.57-.41-1.2-.67-1.88-.79-2.5-.45-4.9,1.23-5.34,3.74-.44,2.5,1.24,4.9,3.74,5.34Z"/>
    <path class="cls-1" d="M90.31,51.06c-.68-.12-1.36-.09-2.03,.1l-.66,.18-1.34,7.6,.56,.4c.57,.4,1.2,.67,1.87,.79,.27,.05,.54,.07,.8,.07,2.19,0,4.14-1.57,4.53-3.81,.21-1.21-.06-2.43-.76-3.44-.71-1.01-1.76-1.68-2.97-1.89Z"/>
    <path class="cls-1" d="M7.5,59.34l.56-.4-1.34-7.6-.66-.18c-.67-.19-1.36-.22-2.03-.1-1.21,.21-2.27,.89-2.97,1.89-.71,1.01-.98,2.23-.76,3.44,.39,2.23,2.34,3.81,4.54,3.81,.26,0,.53-.02,.8-.07,.68-.12,1.31-.39,1.87-.79Z"/>
    <path class="cls-1" d="M86.84,36.92l-.56,.4,1.34,7.6,.66,.18c.41,.11,.82,.17,1.24,.17,.26,0,.53-.02,.79-.07,1.21-.21,2.27-.89,2.97-1.89,.71-1.01,.98-2.23,.76-3.44-.44-2.5-2.83-4.17-5.34-3.74-.68,.12-1.31,.39-1.88,.79Z"/>
    <path class="cls-1" d="M9.57,65.04c-.69,.05-1.35,.26-1.94,.6-2.2,1.27-2.96,4.09-1.69,6.29,.62,1.07,1.61,1.83,2.8,2.15,.4,.11,.8,.16,1.2,.16,.8,0,1.59-.21,2.3-.62,.6-.34,1.1-.81,1.49-1.38l.39-.57-3.86-6.68-.69,.05Z"/>
    <path class="cls-1" d="M84.76,31.22c.69-.05,1.35-.26,1.94-.6,1.07-.62,1.83-1.61,2.15-2.8,.32-1.19,.16-2.43-.46-3.5-1.27-2.2-4.09-2.96-6.29-1.69-.6,.34-1.1,.81-1.49,1.38l-.39,.57,3.86,6.68,.69-.05Z"/>
    <path class="cls-1" d="M17.62,76.87c-.63,.29-1.18,.7-1.62,1.23-.79,.94-1.17,2.14-1.06,3.36,.11,1.23,.69,2.34,1.63,3.13,.86,.72,1.91,1.08,2.96,1.08,1.32,0,2.62-.56,3.53-1.64,.44-.53,.75-1.14,.93-1.81l.17-.67-5.91-4.96-.63,.29Z"/>
    <path class="cls-1" d="M74.4,10.6c-1.23,.11-2.34,.69-3.13,1.63-.44,.53-.75,1.14-.93,1.81l-.17,.67,5.91,4.96,.63-.28c.63-.29,1.18-.7,1.62-1.23,.79-.94,1.17-2.14,1.06-3.36-.11-1.23-.69-2.34-1.63-3.13-.94-.79-2.14-1.18-3.36-1.06Z"/>
    <path class="cls-1" d="M29.73,84.76l-.49,.48c-.5,.49-.87,1.06-1.1,1.71-.87,2.39,.37,5.04,2.75,5.9,.52,.19,1.05,.28,1.57,.28,1.88,0,3.65-1.16,4.33-3.03,.23-.65,.32-1.33,.25-2.02l-.07-.68-7.25-2.64Z"/>
    <path class="cls-1" d="M63.45,3.39c-2.39-.87-5.04,.37-5.9,2.75-.24,.65-.32,1.33-.25,2.02l.07,.68,7.25,2.64,.49-.48c.5-.49,.87-1.06,1.1-1.71,.87-2.39-.37-5.04-2.75-5.9Z"/>
  </g>
</svg>