<?xml version="1.0" encoding="UTF-8"?>
<svg id="OBJECTS" xmlns="http://www.w3.org/2000/svg" viewBox="0 0 87.13 172.17">
  <defs>
    <style>
      .cls-1 {
        fill: #f1c28e;
      }
    </style>
  </defs>
  <path class="cls-1" d="M79.43,302.66l5.79-.24,.14-14.41-6.75-.32,.16-16.89-4.79-3.91-3.69-.03,.06-6.09-2.41-.95-1.71-8.63-.66-43.38,3.77-1.93-2.02-13.23,1.6,.19-4.55-28.24,4.8,1.83,5.45-9.77,3.4-.86,1.95-2.49,.02,.1,.96-1.35,4.84-6.18-1.93-3.41,3.28-6.93-14.56-8.17-5.97,8.15-5.21-3.98-1.98-4.38c-.03-.1-.05-.14-.05-.1l.03-2.68s-2.95-8.77-3.12-9.31c-.17-.54-6.91-5.06-6.91-5.06l-2.25-7.52,1.45-2.13-2.08-6.62,1.3-1.24-.88-5.36,.77-1.21,12.94-.52s.07,0,.08,0c.03-.02-.37-.05-1.04-.1l-11.84-1.2c-.05-.53-.16-1.16-.38-1.82l12.23-4.93-.25,.06,.06-.02-13,2.96c-.41-.6-.93-1.18-1.61-1.72l7.67-8.78-9.8,7.51c-1.22-.54-2.74-.95-4.61-1.15l-.91-11.63-1.68,11.54c-.74,.03-1.43,.13-2.08,.26h0s-.6,.1-.79,.15c-.2,.06-.79,.3-.79,.3l-9.58-7.27,6.97,8.71s-.81,.56-2.36,2.34l-9.28-.71-.42-6.96-3.4-18.42,.91-1.95,.42-6.78-2.62-5.56,1.29-4.63,3.76-1.04,.79-2.13c-.6-.27-1.19-.51-1.78-.72l.55-3.18c-1.65-1.08-3.52-1.61-5.4-1.81l.03-2.65s-.02,0-.07,0c3.89-4.28-.91-12.85-.91-12.85l-1.62,6.41c.11-1.65-1.61-3.96-2.07-3.97-.41,0,1.63,2.43,.02,4.82-.16,.1-4.01,2.74-.72,5.62-.11,.34-.08,1.78-.04,2.83,0,0-3.45,.36-5.36,1.44l.44,3.36c-.85,.29-1.32,.52-1.32,.52l-.03,2.68,2.69,.03-.03,3.21,2.12,1.45s-.04,0-.02,.01l-2.12,1.22,.82,6.79,1.75,3.59,.31,4.64,2.1,2.68,2.38,27.35-7.91,12.6,5.45,10.35-1.63,5.13,5.77,3.62-.07,7.13-3.06,3.14,8.74,10.29-8.17,13.48-.87,7.91,8.84,.08-.06,6.34-4.95,8.03,1.23,37.09-2.83,6.31-.31,32.48-4.49,9.39-3.13,.84-.07,7.08-5.11,1.86-.18,19.3-1.59-.02-2.49-.02h0l-3.03-.03-.15,15.92,3.03,.03h1.04s.28,.01,.28,.01l-.43,45.29,3.03,.03h0l5.73,.05,5.58,.05,11.96,.11,60.69,.58-1.48-47.72ZM26.35,88.56l-.02,2.5-1.46,3.02-.03,3.21-2.3-2.52,.04-4.28-1.9-4.34,4.86,.53,.8,1.88Zm-1.09-3.59l-5.26,.16h0l-2.12-1.11-.23-3.87,8.41,2.36s-.61,1.04-.8,2.46Z"/>
</svg>