<svg width="363" height="231" viewBox="0 0 363 231" fill="none" xmlns="http://www.w3.org/2000/svg">
<g clip-path="url(#clip0_1_34)">
<path d="M221.059 61.5721C222.284 62.9649 224.427 63.1178 225.837 61.878C227.232 60.6543 227.377 58.5128 226.136 57.1039L200.961 28.3628C199.72 26.9458 197.585 26.8251 196.174 28.0407C194.78 29.2645 194.635 31.3979 195.86 32.8148L221.059 61.5721Z" fill="#322E53"/>
<path d="M264.244 44.9634C266.105 44.9473 267.612 43.4338 267.596 41.566L267.322 3.35717C267.314 1.47329 265.783 -0.0160942 263.914 7.2564e-06C262.068 0.0161087 260.545 1.5216 260.561 3.41352L260.835 41.6063C260.835 43.474 262.366 44.9795 264.244 44.9634Z" fill="#322E53"/>
<path d="M351.275 145.396L317.43 127.612C315.77 126.743 313.723 127.379 312.852 129.029C311.982 130.672 312.627 132.716 314.287 133.586L348.116 151.386C349.784 152.24 351.839 151.62 352.693 149.945C353.572 148.311 352.951 146.258 351.275 145.396Z" fill="#322E53"/>
<path d="M359.221 81.1998L321.249 85.6358C319.388 85.8612 318.066 87.5438 318.284 89.3955C318.485 91.2552 320.169 92.5755 322.031 92.3501L360.01 87.9222C361.872 87.6968 363.201 86.0383 362.976 84.1625C362.766 82.3269 361.09 80.9905 359.221 81.1998Z" fill="#322E53"/>
<path d="M284.406 151.531C283.786 149.776 281.844 148.834 280.087 149.478C278.322 150.09 277.403 152.014 278.016 153.777L290.74 189.82C291.361 191.584 293.295 192.493 295.051 191.881C296.824 191.262 297.743 189.321 297.106 187.566L284.406 151.531Z" fill="#322E53"/>
<path d="M303.352 58.0539L326.906 27.9441C328.059 26.4708 327.785 24.3455 326.326 23.1942C324.851 22.051 322.724 22.3086 321.572 23.7899L298.025 53.9078C296.873 55.373 297.138 57.4984 298.613 58.6497C300.088 59.7929 302.207 59.5192 303.352 58.0539Z" fill="#322E53"/>
<path d="M264.067 49.665C236.579 49.665 214.225 72.0139 214.225 99.4669C214.225 102.373 214.523 105.207 215.007 107.985C219.004 108.194 222.864 108.919 226.506 110.126C225.539 106.729 224.991 103.162 224.991 99.4669C224.991 77.9312 242.526 60.4208 264.075 60.4208C285.631 60.4208 303.174 77.9393 303.174 99.4669C303.174 120.995 285.631 138.513 264.075 138.513C260.602 138.513 257.249 138.014 254.042 137.161C255.331 140.791 256.137 144.624 256.419 148.617C258.925 149.003 261.472 149.269 264.075 149.269C291.562 149.269 313.932 126.92 313.932 99.4669C313.924 72.0139 291.554 49.665 264.067 49.665Z" fill="#322E53"/>
<path d="M256.427 155.363C256.524 154.18 256.564 152.972 256.564 151.765C256.564 150.726 256.476 149.704 256.403 148.681C256.121 144.688 255.315 140.856 254.026 137.225C249.529 124.497 239.335 114.457 226.498 110.182C222.856 108.975 218.996 108.25 214.999 108.041C214.225 108.001 213.46 107.928 212.678 107.928C204.547 107.928 196.771 110.126 189.986 114.24C188.72 107.22 185.916 100.739 182.008 95.0551L205.667 96.9793C207.545 97.1403 209.173 95.7394 209.326 93.8717C209.479 92.0361 208.093 90.3857 206.231 90.2408L175.948 87.7612C165.875 77.7219 151.627 71.7402 136.187 72.5775C110.852 73.8414 90.746 92.2776 87.2808 115.995C82.7842 114.425 78.1587 113.644 73.4445 113.644C49.237 113.644 29.5583 133.312 29.5583 157.489C29.5583 157.939 29.5744 158.374 29.6067 158.841C17.3498 162.198 -0.0241806 169.347 -5.31577e-06 194.272C0.02417 214.118 17.6399 230.267 39.2768 230.267L41.3559 230.219C54.8215 229.551 110.586 230.267 110.586 230.251L110.602 229.333C110.699 229.35 110.795 229.358 110.892 229.374L110.932 230.251L110.916 229.382C118.33 230.38 135.503 230.412 175.44 230.493C175.44 230.493 205.506 231 227.288 231C227.304 231 227.312 231 227.328 231C235.508 231 242.535 230.928 246.427 230.734C256.766 230.227 266.363 225.236 273.447 216.686C280.127 208.643 283.665 198.362 283.173 188.484C282.4 173.067 271.666 160.057 256.427 155.363ZM265.155 209.827C260.013 216.018 253.164 219.632 245.879 219.995C242.091 220.188 235.266 220.244 227.32 220.244C227.304 220.244 227.296 220.244 227.28 220.244C205.571 220.244 175.625 219.737 175.537 219.737C150.636 219.689 112.874 219.592 110.9 219.512L110.763 221.943L110.723 219.495C110.723 219.495 84.9359 219.165 64.1048 219.165C54.0962 219.165 45.2158 219.238 40.8159 219.463L39.2768 219.504C23.5709 219.504 10.7741 208.176 10.758 194.248C10.7419 177.672 19.8318 172.278 36.6175 168.132L40.4211 166.522L40.7676 162.706L40.5822 160.363C40.4533 159.413 40.3083 158.471 40.3083 157.481C40.3083 139.23 55.168 124.384 73.4365 124.384C78.9484 124.384 84.3556 125.849 89.505 128.739L97.6762 133.312L97.5151 123.957C97.1444 102.269 114.365 84.412 136.711 83.301L138.887 83.2447C148.831 83.2447 157.945 86.6743 165.069 92.3662C165.415 92.8734 165.883 93.284 166.463 93.5335C174.296 100.393 179.421 110.126 179.961 121.131C180.001 121.896 179.961 122.645 179.864 124.585L179.34 138.449L189.067 128.554C195.361 122.162 203.733 118.644 212.67 118.644C214.596 118.644 216.457 118.893 218.303 119.215C231.857 121.558 242.607 132.097 245.17 145.565C245.548 147.57 245.79 149.623 245.79 151.732C245.79 153.995 245.548 156.201 245.113 158.334L244.017 163.744L249.457 164.702C262.366 166.972 271.795 176.963 272.399 188.999C272.786 196.245 270.127 203.829 265.155 209.827Z" fill="#322E53"/>
</g>
<defs>
<clipPath id="clip0_1_34">
<rect width="363" height="231" fill="white"/>
</clipPath>
</defs>
</svg>
