<?xml version="1.0" encoding="UTF-8"?>
<svg xmlns="http://www.w3.org/2000/svg" viewBox="0 0 179.68 454.59">
  <defs>
    <style>
      .cls-1 {
        isolation: isolate;
      }

      .cls-2 {
        fill: #714190;
        mix-blend-mode: multiply;
        opacity: .1;
      }

      .cls-3 {
        fill: #f1c28e;
      }

      .cls-4 {
        fill: #c19468;
      }

      .cls-5 {
        fill: none;
      }
    </style>
  </defs>
  <g class="cls-1">
    <g id="object">
      <g>
        <rect class="cls-3" x="56.62" y="-.13" width="69" height="106.06" transform="translate(37.8 143.77) rotate(-89.74)"/>
        <polygon class="cls-5" points="48.21 10.75 48.41 10.72 48.31 10.74 48.21 10.75"/>
        <polygon class="cls-5" points="47.94 10.78 47.73 10.81 47.84 10.8 47.94 10.78"/>
        <polygon class="cls-3" points="151.42 454.87 27.95 470.34 29.82 66.35 153.17 66.92 151.42 454.87"/>
        <rect class="cls-3" x="63.19" y="94.76" width="55.77" height="123.36" transform="translate(-65.78 246.8) rotate(-89.74)"/>
        <rect class="cls-3" x="62.68" y="206.01" width="55.77" height="123.36" transform="translate(-177.54 357.02) rotate(-89.74)"/>
        <rect class="cls-3" x="62.17" y="317.33" width="55.77" height="123.36" transform="translate(-289.37 467.31) rotate(-89.74)"/>
        <path class="cls-4" d="M102.34,461.04l-.12-26.75c.03-5.64-6.22-11.16-12.64-11.19-6.4-.03-12.72,5.44-12.75,11.08l-.14,29.95,25.65-3.08Z"/>
        <path class="cls-4" d="M71.86,464.88l.14-31.16c.02-4.89-3.92-8.86-8.8-8.89-4.89-.02-8.86,3.92-8.89,8.8l-.15,33.33,17.7-2.08Z"/>
        <path class="cls-4" d="M124.7,458.23l-.24-24.27c.02-4.89-3.92-8.86-8.8-8.89-4.89-.02-8.87,3.92-8.89,8.97l-.12,26.48,18.05-2.3Z"/>
        <path class="cls-4" d="M49,467.75l.16-35.43c.02-4.17-3.35-7.57-7.52-7.59-4.18-.02-7.57,3.35-7.59,7.52l-.17,37.26,15.13-1.76Z"/>
        <path class="cls-4" d="M144.96,455.53l.11-22.77c.02-4.17-3.35-7.57-7.52-7.59-4.18-.02-7.57,3.35-7.59,7.52l-.12,24.89,15.13-2.05Z"/>
        <path class="cls-4" d="M102.35,406.68l.17-36.39c.03-5.64-6.22-11.16-12.64-11.19-6.4-.03-12.72,5.44-12.75,11.08l-.17,36.39,25.39,.12Z"/>
        <path class="cls-4" d="M72.12,406.54l.17-36.82c.02-4.89-3.92-8.86-8.8-8.89-4.89-.02-8.86,3.92-8.89,8.8l-.17,36.82,17.69,.08Z"/>
        <path class="cls-4" d="M124.59,406.79l.17-36.82c.02-4.89-3.92-8.86-8.8-8.89-4.89-.02-8.87,3.92-8.89,8.8l-.17,36.83,17.69,.08Z"/>
        <path class="cls-4" d="M49.28,406.44l.18-38.11c.02-4.17-3.35-7.58-7.52-7.59-4.18-.02-7.58,3.35-7.59,7.52l-.18,38.11,15.12,.07Z"/>
        <path class="cls-4" d="M145.19,406.88l.18-38.11c.02-4.17-3.35-7.57-7.52-7.59-4.17-.02-7.57,3.35-7.59,7.52l-.18,38.11,15.12,.07Z"/>
        <path class="cls-4" d="M102.61,350.43l.17-36.39c.03-5.64-6.22-11.16-12.64-11.19-6.4-.03-12.72,5.44-12.75,11.08l-.17,36.38,25.39,.12Z"/>
        <path class="cls-4" d="M72.38,350.29l.17-36.82c.02-4.88-3.92-8.86-8.81-8.89-4.89-.02-8.86,3.92-8.88,8.8l-.17,36.82,17.69,.08Z"/>
        <path class="cls-4" d="M124.85,350.53l.17-36.82c.02-4.89-3.92-8.86-8.8-8.89-4.89-.02-8.87,3.92-8.89,8.81l-.17,36.82,17.69,.08Z"/>
        <path class="cls-4" d="M49.54,350.18l.18-38.11c.02-4.17-3.35-7.57-7.52-7.59-4.18-.02-7.58,3.35-7.59,7.52l-.18,38.11,15.12,.07Z"/>
        <path class="cls-4" d="M145.45,350.62l.18-38.11c.02-4.17-3.35-7.57-7.52-7.59-4.18-.02-7.57,3.35-7.59,7.52l-.18,38.11,15.12,.07Z"/>
        <path class="cls-4" d="M102.87,294.17l.17-36.38c.03-5.64-6.22-11.16-12.64-11.19-6.4-.03-12.72,5.44-12.75,11.08l-.17,36.38,25.39,.12Z"/>
        <path class="cls-4" d="M72.64,294.03l.17-36.82c.02-4.88-3.92-8.86-8.8-8.89-4.89-.02-8.86,3.92-8.89,8.81l-.17,36.82,17.69,.08Z"/>
        <path class="cls-4" d="M125.11,294.27l.17-36.82c.02-4.88-3.92-8.86-8.8-8.89-4.89-.02-8.87,3.92-8.89,8.81l-.17,36.82,17.69,.08Z"/>
        <path class="cls-4" d="M49.8,293.92l.18-38.11c.02-4.17-3.35-7.58-7.52-7.59-4.18-.02-7.58,3.35-7.59,7.52l-.18,38.11,15.12,.07Z"/>
        <path class="cls-4" d="M145.71,294.37l.18-38.11c.02-4.17-3.35-7.57-7.52-7.59-4.17-.02-7.57,3.35-7.59,7.52l-.17,38.11,15.12,.07Z"/>
        <path class="cls-4" d="M103.13,237.91l.17-36.39c.03-5.64-6.22-11.16-12.64-11.19-6.4-.03-12.72,5.44-12.75,11.08l-.17,36.38,25.39,.12Z"/>
        <path class="cls-4" d="M72.9,237.77l.17-36.82c.02-4.89-3.92-8.87-8.8-8.89-4.89-.02-8.86,3.92-8.89,8.8l-.17,36.82,17.69,.08Z"/>
        <path class="cls-4" d="M125.37,238.02l.17-36.82c.02-4.89-3.92-8.86-8.8-8.89-4.89-.02-8.87,3.92-8.89,8.81l-.17,36.82,17.69,.08Z"/>
        <path class="cls-4" d="M50.06,237.67l.18-38.11c.02-4.17-3.35-7.57-7.52-7.59-4.18-.02-7.58,3.35-7.59,7.52l-.18,38.11,15.12,.07Z"/>
        <path class="cls-4" d="M145.97,238.11l.18-38.11c.02-4.17-3.35-7.58-7.52-7.59-4.17-.02-7.57,3.35-7.59,7.52l-.18,38.11,15.12,.07Z"/>
        <path class="cls-4" d="M103.39,181.66l.17-36.38c.03-5.64-6.22-11.16-12.64-11.19-6.4-.03-12.72,5.44-12.75,11.08l-.17,36.39,25.39,.12Z"/>
        <path class="cls-4" d="M73.16,181.52l.17-36.82c.02-4.89-3.92-8.86-8.8-8.89-4.89-.02-8.86,3.92-8.89,8.8l-.17,36.82,17.69,.08Z"/>
        <path class="cls-4" d="M125.63,181.76l.17-36.82c.02-4.89-3.92-8.86-8.8-8.89-4.89-.02-8.87,3.92-8.89,8.81l-.17,36.83,17.69,.08Z"/>
        <path class="cls-4" d="M50.32,181.41l.18-38.11c.02-4.17-3.35-7.57-7.52-7.59-4.18-.02-7.58,3.35-7.59,7.52l-.18,38.11,15.12,.07Z"/>
        <path class="cls-4" d="M146.23,181.85l.18-38.11c.02-4.17-3.35-7.57-7.52-7.59-4.17-.02-7.57,3.35-7.59,7.52l-.18,38.11,15.12,.07Z"/>
        <path class="cls-4" d="M103.64,126.33l.17-36.38c.03-5.64-6.22-11.16-12.64-11.19-6.4-.03-12.72,5.44-12.75,11.08l-.17,36.38,25.39,.12Z"/>
        <path class="cls-4" d="M73.42,126.19l.17-36.82c.02-4.89-3.92-8.86-8.81-8.89-4.88-.02-8.86,3.92-8.89,8.81l-.17,36.82,17.69,.08Z"/>
        <path class="cls-4" d="M125.88,126.43l.17-36.82c.02-4.89-3.92-8.86-8.8-8.89-4.89-.02-8.87,3.92-8.89,8.81l-.17,36.83,17.69,.08Z"/>
        <path class="cls-4" d="M50.58,126.08l.18-38.11c.02-4.17-3.35-7.57-7.52-7.59-4.18-.02-7.57,3.35-7.59,7.52l-.18,38.11,15.12,.07Z"/>
        <path class="cls-4" d="M146.48,126.52l.17-38.11c.02-4.17-3.35-7.57-7.52-7.59-4.18-.02-7.58,3.35-7.59,7.52l-.18,38.11,15.12,.07Z"/>
        <path class="cls-4" d="M101.21,66.44l.13-29.22c.02-4.53-4.99-8.97-10.15-8.99-5.14-.02-10.22,4.37-10.24,8.89l-.13,29.22,20.39,.09Z"/>
        <path class="cls-4" d="M76.93,66.33l.14-29.57c.02-3.92-3.14-7.12-7.07-7.14-3.92-.02-7.12,3.15-7.14,7.07l-.14,29.57,14.2,.07Z"/>
        <path class="cls-4" d="M119.06,66.52l.14-29.57c.02-3.92-3.15-7.12-7.07-7.13-3.92-.02-7.12,3.15-7.14,7.07l-.14,29.57,14.21,.07Z"/>
        <path class="cls-4" d="M58.6,66.24l.14-30.6c.02-3.35-2.69-6.08-6.04-6.1-3.36-.02-6.08,2.69-6.1,6.04l-.14,30.6,12.14,.06Z"/>
        <path class="cls-4" d="M135.61,66.6l.14-30.6c.02-3.35-2.69-6.08-6.04-6.1-3.35-.02-6.08,2.69-6.1,6.04l-.14,30.6,12.14,.06Z"/>
        <path class="cls-4" d="M157.47,240.4c0,1.21-.99,2.18-2.19,2.18l-130.94-.6c-1.21,0-2.18-.99-2.18-2.2h0c0-1.21,.99-2.18,2.19-2.17l130.94,.6c1.21,0,2.18,.99,2.17,2.19h0Z"/>
        <path class="cls-4" d="M157.73,184.09c0,1.21-.99,2.18-2.19,2.18l-130.94-.6c-1.21,0-2.18-.99-2.18-2.2h0c0-1.21,.99-2.18,2.2-2.17l130.94,.6c1.21,0,2.18,.99,2.17,2.19h0Z"/>
        <path class="cls-4" d="M157.98,128.86c0,1.21-.99,2.18-2.19,2.18l-130.94-.6c-1.21,0-2.18-.99-2.18-2.2h0c0-1.21,.99-2.18,2.2-2.17l130.94,.6c1.21,0,2.18,.99,2.17,2.19h0Z"/>
        <path class="cls-4" d="M147.28,17.22c0,1.21-.99,2.18-2.19,2.18l-107.62-.5c-1.21,0-2.18-.99-2.17-2.19h0c0-1.21,.99-2.18,2.19-2.18l107.62,.5c1.21,0,2.18,.99,2.17,2.19h0Z"/>
        <path class="cls-4" d="M156.7,407.71c0,1.21-.99,2.18-2.19,2.18l-130.94-.6c-1.21,0-2.18-.99-2.18-2.2h0c0-1.21,.99-2.18,2.2-2.17l130.94,.6c1.21,0,2.18,.99,2.17,2.2h0Z"/>
        <path class="cls-4" d="M156.96,351.94c0,1.21-.99,2.18-2.19,2.18l-130.94-.6c-1.21,0-2.18-.99-2.17-2.2h0c0-1.21,.99-2.18,2.19-2.17l130.94,.6c1.21,0,2.18,.99,2.17,2.19h0Z"/>
        <path class="cls-4" d="M157.21,296.17c0,1.21-.99,2.18-2.2,2.18l-130.94-.6c-1.21,0-2.18-.99-2.18-2.2h0c0-1.21,.99-2.18,2.2-2.17l130.94,.6c1.21,0,2.18,.99,2.18,2.19h0Z"/>
        <path class="cls-4" d="M158.27,66.94c0,1.21-.99,2.18-2.2,2.18l-130.94-.6c-1.21,0-2.18-.99-2.18-2.2h0c0-1.21,.99-2.18,2.2-2.17l130.94,.6c1.21,0,2.18,.99,2.18,2.19h0Z"/>
        <polygon class="cls-2" points="37.46 18.9 144.3 19.39 144.1 64.76 37.46 18.9"/>
        <polygon class="cls-2" points="29.37 130.56 153.03 131.13 152.79 181.95 29.37 130.56"/>
        <polygon class="cls-2" points="29.11 185.68 152.77 186.25 152.54 237.07 29.11 185.68"/>
        <polygon class="cls-2" points="28.85 242 152.51 242.57 152.28 293.39 28.85 242"/>
        <polygon class="cls-2" points="28.59 297.76 152.26 298.33 152.02 349.15 28.59 297.76"/>
        <polygon class="cls-2" points="28.34 353.53 152 354.1 151.76 404.92 28.34 353.53"/>
        <polygon class="cls-2" points="28.08 409.3 151.74 409.87 151.42 454.87 28.08 409.3"/>
      </g>
    </g>
  </g>
</svg>