<?xml version="1.0" encoding="UTF-8"?>
<svg id="OBJECTS" xmlns="http://www.w3.org/2000/svg" viewBox="0 0 171.79 116.82">
  <defs>
    <style>
      .cls-1 {
        fill: #f1c28e;
      }
    </style>
  </defs>
  <path class="cls-1" d="M101.89,55.12v2.68l-18.32,.23-9.51-3.63-6.53,1.83-4.35-13.4v-14.32l-.57-2.06-4.35-1.26-7.44-16.61-3.66-2.98,.57-2.41-2.52-3.21C5.57,10.77,1.49,36.88,1.49,36.88l1.49,5.34-.84,3.21v12.37c-4.73,7.02,0,11.83,0,11.83v7.63c-4.2,4.2-.92,6.95-.92,6.95v15.12c-1.91,2.06,0,2.6,0,2.6v14.89H171.79v-43.98c-16.64-22.91-69.9-17.71-69.9-17.71ZM6.84,81.16c.18-.58,.45-1.15,.78-1.66,.48-.73,1.02-.78,1.41,0,.56,1.11,1.12,2.32,1.23,3.53,.28,3.29,.32,6.61,.46,9.96-1.7,.28-3.16,.52-4.7,.78,.19-4.26-.43-8.5,.82-12.61Zm-.77,31.07c-.04-2.39-.16-4.76,.4-7.08,.26-1.1,.67-2.2,1.19-3.21,.38-.73,.94-.73,1.35-.03,.49,.84,1,1.77,1.12,2.71,.32,2.63,.44,5.28,.66,8.09-1.75-.18-3.19-.33-4.71-.48Zm4.39-43.03c-1.33,.57-2.69,1.09-4.18,1.68,0-3.83-.23-7.56,.85-11.19,.11-.36,.24-.73,.47-1.02,.27-.34,.72-.88,.97-.82,.41,.1,.93,.55,1.05,.95,.44,1.43,.88,2.89,1.05,4.37,.2,1.76,.14,3.56,.15,5.34,0,.24-.17,.61-.36,.69Zm12.26,44.48c-2-.15-3.9-.29-5.92-.45,0-1.69-.1-3.33,.03-4.96,.13-1.76,.41-3.52,.74-5.26,.13-.69,.52-1.35,.89-1.97,.7-1.19,1.95-1.22,2.61-.02,.5,.91,.9,1.9,1.14,2.91,.76,3.16,.48,6.38,.51,9.75Zm-5.81-21.93c-.05-.13-.1-.2-.1-.28,.07-3.88,.04-7.76,.29-11.63,.09-1.33,.76-2.67,1.37-3.91,.61-1.25,1.89-1.16,2.66,.05,.94,1.48,1.3,3.15,1.38,4.85,.17,3.33,.2,6.67,.3,10.14-2.07,.27-3.99,.53-5.91,.78Zm6.02-27.86c0,.23-.16,.61-.33,.67-1.8,.62-3.62,1.19-5.63,1.83,.32-4.73-.52-9.37,.74-13.9,.29-1.04,.67-2.05,1.57-2.76,.47-.38,.99-.43,1.38,0,.49,.55,1,1.15,1.26,1.82,.74,1.9,1.03,3.9,1.03,5.94,0,2.13,0,4.26-.02,6.39Zm15.77,50.46c-2.77-.11-5.56-.23-8.57-.35,.12-3.34,.11-6.55,.4-9.74,.17-1.81,.86-3.57,2.36-4.82,1.24-1.04,2.62-.87,3.7,.37,1.16,1.33,1.85,2.92,1.96,4.61,.22,3.25,.19,6.51,.26,9.76,0,.04-.06,.09-.11,.16Zm-.74-25.14c-2.39,.19-4.77,.49-7.16,.75-.16,.02-.31,0-.68,0,.12-4.54,.17-8.99,.39-13.42,.08-1.56,.79-3.01,1.75-4.28,1.42-1.87,3.81-1.51,5.03,.73,1.08,1.99,1.53,4.12,1.54,6.36,.02,2.94-.01,5.88,.02,8.82,0,.68-.12,.98-.9,1.04Zm1.01-28.93c-2.76,.67-5.58,1.35-8.44,2.04-.02-.27-.05-.45-.05-.63,0-3.59-.04-7.18,.01-10.77,.04-2.35,.52-4.63,2.06-6.5,1.56-1.89,3.23-1.61,4.62,.23,1.15,1.52,1.73,3.31,1.78,5.2,.08,3.45,.02,6.9,.02,10.44Zm18.56,54.61c-3.78-.08-7.43-.17-11.12-.25-.02-.24-.05-.39-.05-.55,0-3.02-.05-6.04,.03-9.06,.06-2.17,.73-4.17,2.18-5.85,2.26-2.64,5.53-2.14,7.42,.78,.91,1.41,1.37,2.97,1.5,4.64,.03,.38,.04,.75,.04,1.13,0,3.01,0,6.03,0,9.16Zm0-27.71c0,.13-.02,.26-.04,.42-3.7,.26-7.37,.53-11.13,.79v-.81c0-3.99,.02-7.98,0-11.98-.01-2.27,.46-4.39,1.74-6.27,1.86-2.73,5.06-3.1,7.23-.63,1.52,1.73,2.16,3.79,2.19,6.01,.07,4.15,.02,8.31,.02,12.46Zm.28-30.61c-3.71,.66-7.41,1.32-11.18,1.99-.02-.27-.06-.49-.06-.72,0-3.94-.05-7.88,.02-11.81,.04-2.33,.6-4.53,2.17-6.37,2.17-2.54,5.28-2.36,7.23,.37,1.14,1.59,1.74,3.39,1.8,5.28,.12,3.74,.03,7.49,.03,11.27Zm21.13,58.42h-13.91c.11-4.32-.04-8.57,.4-12.76,.29-2.71,2.04-4.81,4.8-5.8,2.02-.72,3.85-.26,5.48,.96,2.12,1.58,3.15,3.81,3.2,6.41,.08,3.72,.02,7.44,.02,11.19Zm-.02-28.16c-4.61,.11-9.14,.23-13.73,.34-.02-.23-.05-.46-.05-.69,0-4.56,0-9.12,0-13.68,0-2.7,.85-5.04,2.89-6.84,2.36-2.09,5.65-2.12,8.08,.01,2.02,1.78,2.85,4.06,2.87,6.67,.03,4.58,.01,9.17,.01,13.75,0,.13-.03,.26-.06,.43Zm25.51,28.2h-16.53c-.02-.2-.04-.38-.04-.56,0-3.37-.08-6.75,.01-10.12,.14-5.34,4.86-9.02,9.78-8.09,3.98,.75,6.76,4.17,6.77,8.2,0,3.16,0,6.31,0,9.47v1.1Zm0-29.4v1.04h-16.52c-.02-.23-.06-.43-.06-.64,0-4.88-.02-9.77,0-14.65,.03-4.81,4.02-8.56,8.82-8.32,3.19,.15,6.23,2.42,7.2,5.49,.31,.98,.51,2.04,.52,3.07,.05,4.67,.02,9.33,.02,14Zm21.38,28.14v1.1h-13.79s-.06-.08-.06-.13c0-3.94-.14-7.88,.07-11.81,.15-2.96,1.6-5.42,4.37-6.7,2.94-1.36,6.06-.28,8.01,2.76,1.01,1.58,1.41,3.35,1.41,5.22,0,3.18,0,6.36,0,9.55Zm0-27.56c0,.18-.04,.36-.07,.59h-13.71c-.03-.12-.09-.21-.09-.31,0-5.34-.12-10.69,.08-16.03,.11-3.02,1.62-5.5,4.51-6.75,2.83-1.23,5.78-.2,7.59,2.38,1.07,1.53,1.64,3.24,1.66,5.07,.05,5.02,.02,10.04,.02,15.06Zm19.05,28.18c-3.58,.09-7.25,.18-10.98,.28-.02-.38-.04-.64-.04-.9,0-2.78,0-5.56,0-8.33,0-2.3,.56-4.43,1.94-6.28,1.48-1.97,4.22-2.81,6.46-.77,1.51,1.37,2.46,3.12,2.56,5.06,.19,3.6,.05,7.21,.05,10.96Zm2.58-30.7c-2.57-.36-5.05-.72-7.53-1.07-.56-.08-1.13-.23-1.68-.21-.85,.03-1.14-.37-1.3-1.15-.4-1.92-.95-3.79-.83-5.8,.12-2.14,.5-4.18,1.7-5.98,1.64-2.47,4.37-3.33,6.75-1.31,1.28,1.09,2.15,2.53,2.39,4.2,.28,1.97,.41,3.96,.5,5.95,.08,1.75,.02,3.5,.02,5.37Zm15.91,29.87c-1.21,.05-2.49,.1-3.78,.17-2.69,.15-2.54,.07-3.87-2.28-1.26-2.23-.76-4.5-.69-6.77,.05-1.65,.65-3.19,1.53-4.63,1.39-2.26,3.85-2.28,5.24-.04,.87,1.41,1.44,2.95,1.52,4.55,.14,2.95,.04,5.92,.04,8.98Zm.13-24.09c0,.16-.03,.31-.05,.56-2.84-.29-5.64-.59-8.47-.88-.03-.27-.06-.45-.06-.63,0-3.34,0-6.68,.02-10.03,.02-2,.49-3.91,1.6-5.59,.45-.69,1.16-1.25,1.87-1.7,.76-.49,1.99-.14,2.73,.79,.61,.77,1.22,1.62,1.51,2.54,.43,1.37,.77,2.83,.81,4.26,.11,3.56,.04,7.12,.04,10.68Z"/>
</svg>